<?xml version="1.0" encoding="utf-8"?>
<!-- Generator: Adobe Illustrator 24.0.3, SVG Export Plug-In . SVG Version: 6.00 Build 0)  -->
<svg version="1.0" id="Capa_1" xmlns="http://www.w3.org/2000/svg" xmlns:xlink="http://www.w3.org/1999/xlink" x="0px" y="0px"
	 viewBox="0 0 381.9 194" enable-background="new 0 0 381.9 194" xml:space="preserve">
<g>
	<g>
		<g>
			<g>
				<defs>
					<path id="SVGID_1_" d="M231,72.9c-1.7-0.2-3.3-0.8-4.7-1.7c-3.5,3.7-9.3,4.6-13.9,1.9c-1.5-0.9-2.7-2.1-3.6-3.4
						c-4.7,2-10.4,0.5-13.4-3.9c-1-1.4-1.6-3-1.9-4.6c-5.1-0.1-9.7-3.8-10.7-9c-0.3-1.7-0.3-3.4,0.2-4.9c-4.6-2.2-7.3-7.4-6.1-12.6
						c0.1-0.6,0.3-1.2,0.6-1.8h-32.9v117.8H233V73C232.4,73,231.7,73,231,72.9z"/>
				</defs>
				<clipPath id="SVGID_2_">
					<use xlink:href="#SVGID_1_"  overflow="visible"/>
				</clipPath>
				<g clip-path="url(#SVGID_2_)">
					<rect x="144.7" y="33" fill="#813C09" width="29.4" height="29.4"/>
					<rect x="147.3" y="35.6" fill="#682E06" width="24.2" height="24.2"/>
					<polygon fill="#93440C" points="171.5,35.6 174.1,33 174.1,62.4 171.5,59.8 					"/>
					<polygon fill="#5D2905" points="147.3,59.8 144.7,62.4 144.7,33 147.3,35.6 					"/>
					<polygon fill="#5D2905" points="171.5,59.8 174.1,62.4 144.7,62.4 147.3,59.8 					"/>
				</g>
				<g clip-path="url(#SVGID_2_)">
					<rect x="174.1" y="33" fill="#813C09" width="29.4" height="29.4"/>
					<rect x="176.7" y="35.6" fill="#682E06" width="24.2" height="24.2"/>
					<polygon fill="#93440C" points="201,35.6 203.6,33 203.6,62.4 201,59.8 					"/>
					<polygon fill="#5D2905" points="176.7,59.8 174.1,62.4 174.1,33 176.7,35.6 					"/>
					<polygon fill="#5D2905" points="201,59.8 203.6,62.4 174.1,62.4 176.7,59.8 					"/>
				</g>
				<g clip-path="url(#SVGID_2_)">
					<rect x="203.6" y="33" fill="#813C09" width="29.4" height="29.4"/>
					<rect x="206.2" y="35.6" fill="#682E06" width="24.2" height="24.2"/>
					<polygon fill="#93440C" points="230.4,35.6 233,33 233,62.4 230.4,59.8 					"/>
					<polygon fill="#5D2905" points="206.2,59.8 203.6,62.4 203.6,33 206.2,35.6 					"/>
					<polygon fill="#5D2905" points="230.4,59.8 233,62.4 203.6,62.4 206.2,59.8 					"/>
				</g>
				<g clip-path="url(#SVGID_2_)">
					<rect x="144.7" y="62.4" fill="#813C09" width="29.4" height="29.4"/>
					<rect x="147.3" y="65" fill="#682E06" width="24.2" height="24.2"/>
					<polygon fill="#93440C" points="171.5,65 174.1,62.4 174.1,91.9 171.5,89.3 					"/>
					<polygon fill="#5D2905" points="147.3,89.3 144.7,91.9 144.7,62.4 147.3,65 					"/>
					<polygon fill="#5D2905" points="171.5,89.3 174.1,91.9 144.7,91.9 147.3,89.3 					"/>
				</g>
				<g clip-path="url(#SVGID_2_)">
					<rect x="174.1" y="62.4" fill="#813C09" width="29.4" height="29.4"/>
					<rect x="176.7" y="65" fill="#682E06" width="24.2" height="24.2"/>
					<polygon fill="#93440C" points="201,65 203.6,62.4 203.6,91.9 201,89.3 					"/>
					<polygon fill="#5D2905" points="176.7,89.3 174.1,91.9 174.1,62.4 176.7,65 					"/>
					<polygon fill="#5D2905" points="201,89.3 203.6,91.9 174.1,91.9 176.7,89.3 					"/>
				</g>
				<g clip-path="url(#SVGID_2_)">
					<rect x="203.6" y="62.4" fill="#813C09" width="29.4" height="29.4"/>
					<rect x="206.2" y="65" fill="#682E06" width="24.2" height="24.2"/>
					<polygon fill="#93440C" points="230.4,65 233,62.4 233,91.9 230.4,89.3 					"/>
					<polygon fill="#5D2905" points="206.2,89.3 203.6,91.9 203.6,62.4 206.2,65 					"/>
					<polygon fill="#5D2905" points="230.4,89.3 233,91.9 203.6,91.9 206.2,89.3 					"/>
				</g>
				<g clip-path="url(#SVGID_2_)">
					<rect x="144.7" y="91.9" fill="#813C09" width="29.4" height="29.4"/>
					<rect x="147.3" y="94.5" fill="#682E06" width="24.2" height="24.2"/>
					<polygon fill="#93440C" points="171.5,94.5 174.1,91.9 174.1,121.3 171.5,118.7 					"/>
					<polygon fill="#5D2905" points="147.3,118.7 144.7,121.3 144.7,91.9 147.3,94.5 					"/>
					<polygon fill="#5D2905" points="171.5,118.7 174.1,121.3 144.7,121.3 147.3,118.7 					"/>
				</g>
				<g clip-path="url(#SVGID_2_)">
					<rect x="174.1" y="91.9" fill="#813C09" width="29.4" height="29.4"/>
					<rect x="176.7" y="94.5" fill="#682E06" width="24.2" height="24.2"/>
					<polygon fill="#93440C" points="201,94.5 203.6,91.9 203.6,121.3 201,118.7 					"/>
					<polygon fill="#5D2905" points="176.7,118.7 174.1,121.3 174.1,91.9 176.7,94.5 					"/>
					<polygon fill="#5D2905" points="201,118.7 203.6,121.3 174.1,121.3 176.7,118.7 					"/>
				</g>
				<g clip-path="url(#SVGID_2_)">
					<rect x="203.6" y="91.9" fill="#813C09" width="29.4" height="29.4"/>
					<rect x="206.2" y="94.5" fill="#682E06" width="24.2" height="24.2"/>
					<polygon fill="#93440C" points="230.4,94.5 233,91.9 233,121.3 230.4,118.7 					"/>
					<polygon fill="#5D2905" points="206.2,118.7 203.6,121.3 203.6,91.9 206.2,94.5 					"/>
					<polygon fill="#5D2905" points="230.4,118.7 233,121.3 203.6,121.3 206.2,118.7 					"/>
				</g>
				<g clip-path="url(#SVGID_2_)">
					<rect x="144.7" y="121.3" fill="#813C09" width="29.4" height="29.4"/>
					<rect x="147.3" y="123.9" fill="#682E06" width="24.2" height="24.2"/>
					<polygon fill="#93440C" points="171.5,123.9 174.1,121.3 174.1,150.8 171.5,148.2 					"/>
					<polygon fill="#5D2905" points="147.3,148.2 144.7,150.8 144.7,121.3 147.3,123.9 					"/>
					<polygon fill="#5D2905" points="171.5,148.2 174.1,150.8 144.7,150.8 147.3,148.2 					"/>
				</g>
				<g clip-path="url(#SVGID_2_)">
					<rect x="174.1" y="121.3" fill="#813C09" width="29.4" height="29.4"/>
					<rect x="176.7" y="123.9" fill="#682E06" width="24.2" height="24.2"/>
					<polygon fill="#93440C" points="201,123.9 203.6,121.3 203.6,150.8 201,148.2 					"/>
					<polygon fill="#5D2905" points="176.7,148.2 174.1,150.8 174.1,121.3 176.7,123.9 					"/>
					<polygon fill="#5D2905" points="201,148.2 203.6,150.8 174.1,150.8 176.7,148.2 					"/>
				</g>
				<g clip-path="url(#SVGID_2_)">
					<rect x="203.6" y="121.3" fill="#813C09" width="29.4" height="29.4"/>
					<rect x="206.2" y="123.9" fill="#682E06" width="24.2" height="24.2"/>
					<polygon fill="#93440C" points="230.4,123.9 233,121.3 233,150.8 230.4,148.2 					"/>
					<polygon fill="#5D2905" points="206.2,148.2 203.6,150.8 203.6,121.3 206.2,123.9 					"/>
					<polygon fill="#5D2905" points="230.4,148.2 233,150.8 203.6,150.8 206.2,148.2 					"/>
				</g>
			</g>
		</g>
		<g>
			<g>
				<polygon fill="#00BBCC" points="144,82.9 144.7,150.8 233.2,150 232.9,108.1 230.4,112.6 227,111.4 221,110.5 215.5,111.4 
					208.2,108.4 203.1,96.1 187.6,92.6 179.1,96.1 171.4,90.3 158.6,91.2 156,85 				"/>
			</g>
			<g>
				<path fill="#FFFFFF" d="M232.9,108.1l-4.6,1.4l-4.7-1.1l-4.9-0.9l-3.5,0.9l-6.1-1.3l-3.8-12.6l-17.4-3l-8.2,2.5l-7.5-5.8
					l-9.9,1.9l-4.6-6.9L144,82.9l1.8,3.6l5.7,0.2l2.4-1.4l1,1.8l1.1,3.3c0,0,1,3.1,1.9,2.8c0.8-0.3,3.9-1.1,3.9-1.1l2.7-0.6l3.9,2.5
					l2.4-1.2c1.6-1.2,4.9,0.7,4.9,0.7l3.1,3.2l3.3-0.2l3.8-0.3l2.4-1.4l3,1.1l5,2.4l4.1-1.5l2.9-0.6l1.1,3.5l1.8,8.3l1.2,1.8
					l3.3-0.2l2.6,4.3l3.8-0.3c0,0,0.9-1.5,1.7-2.2c0.8-0.7,2.5-0.8,2.5-0.8s2.8,0.9,3.4,1.2s3.2,1.1,3.2,1.1l2.7-0.2l1.6-1.4
					L232.9,108.1z"/>
			</g>
			<g opacity="0.3">
				<polygon points="228,144.1 228.2,109.2 233,107.8 233.2,150 				"/>
			</g>
			<g opacity="0.3">
				<polygon points="149.5,145 148.6,83 144,83 144.7,150.8 				"/>
			</g>
		</g>
	</g>
	<g>
		<text transform="matrix(1 0 0 1 -1.220703e-04 152.5048)" font-family="'FredokaOne-Regular'" font-size="176px">4</text>
		<g>
			<linearGradient id="SVGID_3_" gradientUnits="userSpaceOnUse" x1="49.896" y1="38.2851" x2="49.896" y2="127.625">
				<stop  offset="0" style="stop-color:#613513"/>
				<stop  offset="0.1715" style="stop-color:#7E4921"/>
				<stop  offset="0.3691" style="stop-color:#995C2E"/>
				<stop  offset="0.5714" style="stop-color:#AC6938"/>
				<stop  offset="0.7789" style="stop-color:#B7703D"/>
				<stop  offset="1" style="stop-color:#BB733F"/>
			</linearGradient>
			<path fill="url(#SVGID_3_)" d="M67.8,27.7c0.9-1.6,2.6-2.8,4.8-3.4c2.3-0.6,5.3-1,9-1s6.7,0.4,8.9,1.1c2.2,0.8,3.8,2,4.8,3.7
				c0.9,1.7,1.5,3.3,1.7,4.7c0.2,1.4,0.3,3.5,0.3,6.2v97.9c0,4.6-0.6,8-1.7,10.1c-1.1,2.2-2.8,3.6-5.1,4.3s-5.1,1.1-8.5,1.1
				c-3.4,0-6.1-0.3-8.1-0.9c-2-0.6-3.5-1.3-4.6-2.1c-1.1-0.8-1.8-2-2.3-3.5c-0.7-2-1.1-5-1.1-9.2v-21.5H18.1
				c-8.2,0-13.1-2.2-14.6-6.7c-0.6-1.9-0.9-4.4-0.9-7.6s0.2-5.5,0.5-7l14.6-59c0.7-2.7,1.3-4.8,1.8-6.2s1.6-2.8,3.2-4
				c1.6-1.3,3.6-1.9,6.1-1.9S34,23.2,37,24c8.2,2.2,12.3,6,12.3,11.3c0,1.9-0.4,4.3-1.2,7.4c-0.1,0.2-0.2,0.4-0.2,0.5L37.1,86.2
				h28.7v-48c0-2.7,0.1-4.7,0.3-6C66.3,30.8,66.8,29.4,67.8,27.7z"/>
		</g>
	</g>
	<g>
		<text transform="matrix(1 0 0 1 277.6652 152.5048)" font-family="'FredokaOne-Regular'" font-size="176px">4</text>
		<g>
			<linearGradient id="SVGID_4_" gradientUnits="userSpaceOnUse" x1="327.561" y1="38.2851" x2="327.561" y2="127.625">
				<stop  offset="0" style="stop-color:#613513"/>
				<stop  offset="0.1715" style="stop-color:#7E4921"/>
				<stop  offset="0.3691" style="stop-color:#995C2E"/>
				<stop  offset="0.5714" style="stop-color:#AC6938"/>
				<stop  offset="0.7789" style="stop-color:#B7703D"/>
				<stop  offset="1" style="stop-color:#BB733F"/>
			</linearGradient>
			<path fill="url(#SVGID_4_)" d="M345.4,27.7c0.9-1.6,2.6-2.8,4.8-3.4c2.3-0.6,5.3-1,9-1s6.7,0.4,8.9,1.1c2.2,0.8,3.8,2,4.8,3.7
				c0.9,1.7,1.5,3.3,1.7,4.7c0.2,1.4,0.3,3.5,0.3,6.2v97.9c0,4.6-0.6,8-1.7,10.1c-1.1,2.2-2.8,3.6-5.1,4.3s-5.1,1.1-8.5,1.1
				c-3.4,0-6.1-0.3-8.1-0.9c-2-0.6-3.5-1.3-4.6-2.1c-1.1-0.8-1.8-2-2.3-3.5c-0.7-2-1.1-5-1.1-9.2v-21.5h-47.7
				c-8.2,0-13.1-2.2-14.6-6.7c-0.6-1.9-0.9-4.4-0.9-7.6s0.2-5.5,0.5-7l14.6-59c0.7-2.7,1.3-4.8,1.8-6.2s1.6-2.8,3.2-4
				c1.6-1.3,3.6-1.9,6.1-1.9s5.2,0.4,8.1,1.2c8.2,2.2,12.3,6,12.3,11.3c0,1.9-0.4,4.3-1.2,7.4c-0.1,0.2-0.2,0.4-0.2,0.5l-10.7,42.9
				h28.7v-48c0-2.7,0.1-4.7,0.3-6C343.9,30.8,344.5,29.4,345.4,27.7z"/>
		</g>
	</g>
</g>
</svg>
