<svg width="70" height="70" viewBox="0 0 70 70" fill="none" xmlns="http://www.w3.org/2000/svg">
<circle cx="35" cy="35" r="35" fill="#37BBCB"/>
<path d="M15 52L17.7586 42C15.9655 38.8966 15 35.4483 15 31.862C15 20.9655 23.9655 12 34.931 12C45.8965 12 55 20.9655 55 31.862C55 42.7585 45.8966 52 34.931 52C31.4827 52 28.1724 50.8966 25.2069 49.2414L15 52Z" fill="#EDEDED"/>
<path d="M25.7586 45.6552L26.3793 46C28.931 47.5862 31.8965 48.5518 35 48.5518C44.0344 48.5518 51.5517 41.0345 51.5517 31.8621C51.5517 22.6897 44.0344 15.4483 34.931 15.4483C25.8275 15.4483 18.4482 22.7586 18.4482 31.8621C18.4482 35.0345 19.3448 38.1379 21 40.7586L21.4138 41.3793L19.8276 47.1725L25.7586 45.6552Z" fill="#55CD6C"/>
<path d="M29.6209 22.6207L28.3106 22.5517C27.8968 22.5517 27.483 22.6896 27.2072 22.9655C26.5865 23.5172 25.552 24.5517 25.2761 25.931C24.7934 28 25.552 30.4828 27.3451 32.9655C29.1383 35.4482 32.5865 39.4482 38.6554 41.1724C40.5865 41.7241 42.1037 41.3792 43.3451 40.6206C44.3107 39.9999 44.9313 39.0345 45.1382 37.9999L45.3451 37.0344C45.4141 36.7585 45.2761 36.4137 45.0003 36.2758L40.6554 34.2758C40.3796 34.1378 40.0347 34.2068 39.8279 34.4827L38.1037 36.6896C37.9658 36.8275 37.7589 36.8964 37.552 36.8275C36.3796 36.4137 32.4486 34.7585 30.3106 30.6206C30.2416 30.4138 30.2416 30.2068 30.3796 30.0689L32.0347 28.2069C32.1727 28 32.2416 27.7242 32.1727 27.5172L30.1727 23.0345C30.1036 22.8275 29.8968 22.6207 29.6209 22.6207Z" fill="#FEFEFE"/>
</svg>
